<svg xmlns="http://www.w3.org/2000/svg" height="546.04px" width="485.51px" viewBox="0 0 485.50863 546.03628"><g id="Layer_2" data-name="Layer 2"><g id="Layer_1-2" data-name="Layer 1"><polygon points="209.604 546.036 0 0 472.873 56.051 477.595 73.68 209.604 546.036" style="fill:#fbbb48"/><path d="M70.73123,140.92877s.50291-.6264,1.46083-1.66852a56.76643,56.76643,0,0,1,66.59854-12.48556c2.01621.98053,4.19284,1.97963,6.4093,2.89863a35.97575,35.97575,0,0,0,21.21463,1.84639c11.12711-2.3472,31.66777-4.3626,41.71771,9.40906Z" style="fill:#fff"/><path d="M109.66165,413.453s.50291-.62641,1.46083-1.66853A56.76644,56.76644,0,0,1,177.721,399.2989c2.01621.98053,4.19285,1.97964,6.40931,2.89863a35.97571,35.97571,0,0,0,21.21462,1.8464c11.12711-2.3472,31.66777-4.3626,41.71771,9.40906Z" style="fill:#fff"/><path d="M6.693,70.31819s.331-.61.96163-1.62483c11.15711-17.95592,29.01381-22.82521,43.84-12.1586,1.32722.95485,2.76,1.92779,4.21908,2.82272a16.63822,16.63822,0,0,0,13.965,1.798c7.32468-2.28574,20.84605-4.24836,27.46165,9.16266Z" style="fill:#fff"/><path d="M185.05877,288.80354a69.17221,69.17221,0,0,0-9.77467-27.56893,14.5,14.5,0,0,0-2.97305,1.97579l-41.38072,35.70993a13.833,13.833,0,0,1-9.742,3.3424l-9.58386-.48871a6.72208,6.72208,0,0,0-6.15679,3.35652L83.048,344.08161a2.87313,2.87313,0,0,0-.13393.26351,2.83771,2.83771,0,0,0,4.43877,3.3089l27.55889-23.58586a68.31345,68.31345,0,0,1,15.742-10.10208Z" style="fill:#183059"/><path d="M115.92475,301.99433l-4.32027-.22032a6.722,6.722,0,0,0-6.15681,3.35654L83.048,344.08161a2.83908,2.83908,0,0,0,1.304,4.00954,2.83744,2.83744,0,0,0,3.00081-.43714l27.55886-23.58586a68.31758,68.31758,0,0,1,7.37711-5.49476Z" style="fill:#183059"/><path d="M267.60561,240.47789a25.04407,25.04407,0,0,1-4.5685-36.49139q.60864-.72257,1.274-1.40085.665-.67765,1.38512-1.30725l-54.834,47.913a31.45841,31.45841,0,0,1-14.30346,7.11224l-17.67245,3.66954a14.679,14.679,0,0,0-2.2759.66913c-.45759.17565-.89731.37692-1.32634.59228a69.173,69.173,0,0,1,9.77463,27.56891l2.9019-1.34213L214.34762,276.179a2.82555,2.82555,0,0,1,.38318-4.61058L246.72086,252.861a8.53756,8.53756,0,0,1,3.48632-1.12648,8.413,8.413,0,0,1,2.21972.08368,8.50915,8.50915,0,0,1,3.367,1.36556,8.41529,8.41529,0,0,1,2.5174,2.70474,8.12142,8.12142,0,0,0,.83705,1.182q.23409.27376.4915.52267c.09551.09218.1958.17851.296.26492l15.33773-11.90693Z" style="fill:#c95960"/><path d="M483.20937,54.18642l-10.92595-4.49524a1.53635,1.53635,0,0,0-2.03745.92134l-4.55749,13.25832c-.01119.03792-.01977.07358-.03149.112l-3.01254,8.65465a2.70791,2.70791,0,0,0,1.273,3.27409l7.96622,4.29222,1.2084.66895a2.24074,2.24074,0,0,0,3.21027-1.24993L484.132,56.204A1.62453,1.62453,0,0,0,483.20937,54.18642Z" style="fill:#445a7a"/><path d="M438.24021,89.40786l-2.05578,1.40328L431.58758,93.949a17.10447,17.10447,0,0,1-4.24484,2.10325l-7.78428,2.58912c.17426.46912-25.19789,7.0078-26.235,7.3296-10.07713,2.97346-6.14546,32.42925-7.10007,39.3777-.11672.85013-.18887,2.46452-.335,3.24693h0s10.83538-23.27281,42.84787-33.88722a13.53168,13.53168,0,0,0,4.8343-2.80546l8.004-7.2541,2.42964-2.43886Z" style="fill:#543e81"/><path d="M419.43144,98.40093l-2.94424-2.93036a3.87672,3.87672,0,0,1-1.12663-2.37428c-.13976-1.443-.38216-3.28554-.5547-4.12383a16.66692,16.66692,0,0,0-6.93123-10.51422,22.16877,22.16877,0,0,0-3.65138-1.98617,21.29322,21.29322,0,0,0-23.7438,34.18841,1.25257,1.25257,0,0,1-1.03953,2.09715l-18.15645-1.70356.00032.00023c2.77961.32635,6.72614,12.30968,12.05745,23.07948a173.66521,173.66521,0,0,0,11.67485,19.5449c1.37953-7.5605,5.8958-21.8282,9.94881-26.9403A41.23178,41.23178,0,0,1,416.032,112.70109a3.87353,3.87353,0,0,0,1.24977-6.74327.68914.68914,0,0,1,.02854-1.11072l.8523-.591a.583.583,0,0,0-.22588-1.05232l-1.0892-.2019a.04406.04406,0,0,1-.01576-.08041l1.17516-.75275a.59682.59682,0,0,0-.06436-1.041l-.377-.18028a.29885.29885,0,0,1,.02182-.54865l1.4266-.54762A.94547.94547,0,0,0,419.43144,98.40093Z" style="fill:#76659a"/><path d="M471.88363,80.20375l-7.96622-4.29222a2.7079,2.7079,0,0,1-1.273-3.27409l3.01254-8.65465c1.79366-5.86728-2.5448-6.62943-2.5448-6.62943l-1.029,5.2196a2.89578,2.89578,0,0,1-.85207,1.5444s-3.41333,3.46026-3.50317,3.97946l-1.29538,7.4873a3.82281,3.82281,0,0,1-1.61165,2.50567L436.404,90.66125h0l5.318,13.85386h0l20.49055-19.31692" style="fill:#183059"/><path d="M474.74735,76.82027a.85709.85709,0,0,0,1.216-.48462L482.83872,55.771a.26143.26143,0,0,0-.148-.3236L471.7642,50.95235a.16523.16523,0,0,0-.12669-.00177.16909.16909,0,0,0-.10222.10533l-4.54445,13.22148-.03167.11012L464.528,71.37414Z" style="fill:#c95960"/><path d="M474.00426,67.46624H482.425a0,0,0,0,1,0,0v1.75253a1.33265,1.33265,0,0,1-1.33265,1.33265h-7.08811a1.40958,1.40958,0,0,1-1.40958-1.40958v-.266A1.40958,1.40958,0,0,1,474.00426,67.46624Z" transform="matrix(0.9878, -0.15575, 0.15575, 0.9878, -4.92082, 75.2157)" style="fill:#183059"/><path d="M472.02228,70.90205H480.443a0,0,0,0,1,0,0v1.75253a1.33265,1.33265,0,0,1-1.33265,1.33265h-7.08811a1.40958,1.40958,0,0,1-1.40958-1.40958v-.266A1.40958,1.40958,0,0,1,472.02228,70.90205Z" transform="translate(-5.48015 74.94893) rotate(-8.96046)" style="fill:#183059"/><path d="M473.89858,73.973h5.33187a0,0,0,0,1,0,0v1.75253a1.33265,1.33265,0,0,1-1.33265,1.33265h-3.99922a1.40958,1.40958,0,0,1-1.40958-1.40958v-.266a1.40958,1.40958,0,0,1,1.40958-1.40958Z" transform="translate(-5.95441 75.0381) rotate(-8.96046)" style="fill:#183059"/><path d="M483.63033,63.35512l-1.99437.31448-1.10236,3.29709,3.74356-.59027a1.45848,1.45848,0,0,0,1.21347-1.66776A1.62676,1.62676,0,0,0,483.63033,63.35512Z" style="fill:#183059"/><path d="M311.81672,167.64111l5.25837-7.7673,9.38047,3.19437,9.50315-15.015,5.48744-23.50649,6.69565-7.798a13.37834,13.37834,0,0,1,10.4052-4.84865l11.5967.10171a24.70459,24.70459,0,0,0-24.752-4.14913L142.28,185.81991v0a64.46548,64.46548,0,0,0,83.17923,8.84508,97.4872,97.4872,0,0,1,8.47673-5.23061c18.00116-9.754,37.0644-8.05708,56.47174-9.51629a28.29026,28.29026,0,0,0,21.32912-12.15929Z" style="fill:#c95960"/><path d="M360.95777,177.88941c-23.15478,18.81347-40.74487,44.44482-40.74487,44.44482l-23.69751-16.00488c-6.31519-6.06836-17.13086-10.71777-25.95581-8.37305,0,0,3.62207-1.75781,4.88428-2.20752,3.54956-1.26367,14.56543-3.86963,14.56543-3.86963a35.50181,35.50181,0,0,0,19.543-13.35839l2.84008-3.88428.05225-.07178s30.2771-55.17578,29.34692-54.48144a40.83594,40.83594,0,0,1,12.39649-8.04q.33691-.1377.67773-.25977a14.75279,14.75279,0,0,1,18.70142,9.15137l11.01074,31.07666a11.05049,11.05049,0,0,1-5.19678,13.39258l-18.26318,12.35156Z" style="fill:#445a7a"/><path d="M352.62,253.12363,299.5122,202.0922a25.03822,25.03822,0,0,0-23.74643-6.157,25.30028,25.30028,0,0,0-7.17147,3.16275,25.02823,25.02823,0,0,0-.9887,41.38l25.0925,17.9102,42.55822,28.193a19.56244,19.56244,0,0,0,10.92663-1.0072,19.78915,19.78915,0,0,0,11.00255-25.71252A19.55886,19.55886,0,0,0,352.62,253.12363Z" style="fill:#d68388"/><path d="M314.21082,262.6855l21.0455,23.8956L261.206,268.16587a68.31358,68.31358,0,0,0-18.5945,2.02673l-35.18257,8.83017a2.84934,2.84934,0,0,1-1.58545-.05852,3.08549,3.08549,0,0,1-2.03591-3.0356,3.42212,3.42212,0,0,1,1.36-2.02254l37.41265-24.88425a6.722,6.722,0,0,1,7.00745-.26052l8.36142,4.70912a13.83317,13.83317,0,0,0,10.21061,1.35007l4.975-1.97763A36.68025,36.68025,0,0,1,314.21082,262.6855Z" style="fill:#183059"/><path d="M374.59169,163.23938l-.84-1.11718a4.0199,4.0199,0,0,0-4.25354-1.46716l-4.27251,1.145,0,0q-1.32132.34987-2.64249.69973a9.26663,9.26663,0,0,0-1.67782.561,7.65737,7.65737,0,0,0-2.33126,1.94394,23.77986,23.77986,0,0,1-3.96906-.24027l-23.77667-3.49929,27.82838-21.65077a12.936,12.936,0,1,0-19.15116-17.34405L309.661,158.93984a10.47575,10.47575,0,0,0,8.20089,17.09312l37.18987-.29372A7.05839,7.05839,0,0,1,358,176.32561c1.06818.47933,2.09478,1.09139,3.1219,1.65511a15.64838,15.64838,0,0,0,6.07105,1.85331c3.68977.33514,6.79566-.657,6.93729-2.216a1.691,1.691,0,0,0-.57537-1.30448c1.67391-.367,2.806-1.08951,2.89-2.01445a1.9832,1.9832,0,0,0-.953-1.64447c1.56-.38,2.60089-1.08224,2.68143-1.96883.06786-.74712-.56244-1.48731-1.6381-2.09409,1.86667-.33887,3.15033-1.09795,3.24017-2.08653C379.90062,165.12617,377.66316,163.76715,374.59169,163.23938Z" style="fill:#76659a"/><path d="M374.59169,163.23938l-.84-1.11718a4.0199,4.0199,0,0,0-4.25354-1.46716l-4.27251,1.145,0,0q-1.32132.34987-2.64249.69973a9.26663,9.26663,0,0,0-1.67782.561,7.65737,7.65737,0,0,0-2.33126,1.94394,23.77986,23.77986,0,0,1-3.96906-.24027L341.67,162.86073l-1.30259,12.99452,14.68439-.116A7.05839,7.05839,0,0,1,358,176.32561c1.06818.47933,2.09478,1.09139,3.1219,1.65511a15.64838,15.64838,0,0,0,6.07105,1.85331c3.68977.33514,6.79566-.657,6.93729-2.216a1.691,1.691,0,0,0-.57537-1.30448c1.67391-.367,2.806-1.08951,2.89-2.01445a1.9832,1.9832,0,0,0-.953-1.64447c1.56-.38,2.60089-1.08224,2.68143-1.96883.06786-.74712-.56244-1.48731-1.6381-2.09409,1.86667-.33887,3.15033-1.09795,3.24017-2.08653C379.90062,165.12617,377.66316,163.76715,374.59169,163.23938Z" style="fill:#183059"/><circle cx="402.58588" cy="108.08673" r="2.11522" style="fill:#c95960"/><path d="M404.533,76.60754A21.28791,21.28791,0,0,0,383.2061,113.111l3.51654-1.34987a2.87122,2.87122,0,0,0,1.84141-2.75005l-.08527-3.51972a5.32705,5.32705,0,0,1,3.41646-5.10228h0a5.32707,5.32707,0,0,1,5.39524.94533l2.59435,2.24541,1.69263-.64974s-5.06273-15.348,10.31879-20.5507a16.03719,16.03719,0,0,0-4.02165-3.9211A22.17052,22.17052,0,0,0,404.533,76.60754Z" style="fill:#183059"/><path d="M382.14359,77.25255c.75607.51643-.0281,2.53647.45808,3.29509.47346.73877,2.63312.80516,2.84812,1.7093.20065.84376-1.68425,1.9487-1.71077,2.883-.02466.86918,1.8225,2.03406,1.59959,2.93856-.20907.84831-2.38651,1.04889-2.77133,1.89288-.36378.79785.92926,2.565.40727,3.32922-.52183.764-2.63812.20217-3.24878.8311-.6461.66542-.04067,2.76656-.75472,3.26989-.76171.53692-2.519-.75973-3.32-.42046-.86075.36459-1.20441,2.5223-2.0634,2.64231-.92074.12864-1.76833-1.859-2.629-2.03144-.88312-.177-2.47933,1.28829-3.23512.772-.75607-.51643.02809-2.53646-.45809-3.29508-.47345-.73877-2.63311-.80517-2.84812-1.70931-.20064-.84376,1.68426-1.94869,1.71077-2.883.02467-.86919-1.82249-2.03406-1.59958-2.93857.20906-.84831,2.3865-1.04888,2.77132-1.89288.36378-.79785-.92926-2.565-.40726-3.32922.52183-.764,2.63811-.20217,3.24877-.83109.6461-.66543.04068-2.76657.75472-3.26989.76172-.53693,2.51905.75972,3.32.42046.86075-.36459,1.20442-2.5223,2.0634-2.64232.92075-.12864,1.76834,1.859,2.629,2.03145C379.79159,78.20159,381.3878,76.73632,382.14359,77.25255Z" style="fill:#183059"/><path d="M408.40832,74.30146c.16162.85822-1.82018,1.69041-2.00392,2.52994-.179.818,1.31691,2.35392.85177,3.109-.43379.70423-2.52117.12-3.16919.73218-.6026.56925-.08653,2.67357-.84651,3.13305-.71316.43117-2.35711-.98488-3.18592-.67517-.78347.29277-1.07854,2.44538-1.94606,2.60875-.8672.16332-1.92482-1.73449-2.76084-1.72217-.88487.013-1.90122,1.93009-2.72254,1.78787-.87576-.15166-1.161-2.29973-1.92993-2.61113-.82631-.33465-2.55851.96845-3.2187.47007-.70764-.53421.12766-2.50876-.33641-3.2055-.47617-.71493-2.62478-.769-2.78632-1.62685-.16163-.85822,1.82017-1.6904,2.00391-2.52994.179-.818-1.31691-2.35391-.85177-3.109.43379-.70423,2.52118-.12005,3.16919-.73219.60261-.56925.08653-2.67357.84651-3.133.71316-.43117,2.35712.98488,3.18592.67517.78348-.29278,1.07855-2.44538,1.94606-2.60876.8672-.16331,1.92482,1.7345,2.76084,1.72218.88487-.013,1.90123-1.9301,2.72254-1.78787.87576.15166,1.161,2.29972,1.92993,2.61113.82632.33464,2.55852-.96846,3.2187-.47007.70765.5342-.12766,2.50876.33641,3.2055C406.09816,73.38954,408.24677,73.44365,408.40832,74.30146Z" style="fill:#183059"/><circle cx="400.6487" cy="103.04019" r="2.11522" style="fill:#fbbb48"/><circle cx="468.80696" cy="76.044" r="1.2889" style="fill:#183059"/><path d="M395.46924,126.15426a49.958,49.958,0,0,1-.497,5.04526c-11.28561-6.39543-13.99418-15.18993-14.639-18.7069a1.41354,1.41354,0,0,1-.53723.24131c.7137,3.73385,3.60046,12.68492,15.192,19.11261l.31461.17469.11212-.34185a46.70705,46.70705,0,0,0,.65479-6.22039Z" style="fill:#183059"/><ellipse cx="396.54038" cy="135.39564" rx="2.66987" ry="5.9724" transform="translate(-22.18341 151.10028) rotate(-21)" style="fill:#fff"/></g></g></svg>
